<svg width="542" height="495" viewBox="0 0 542 495" fill="none" xmlns="http://www.w3.org/2000/svg">
<path d="M264.136 137.134C268.742 138.041 271.741 142.505 270.84 147.106L267.48 164.219C266.551 168.956 261.852 171.994 257.109 170.83C252.667 169.743 249.973 165.202 250.853 160.716L250.945 160.257L228.794 161.268C228.128 161.296 227.549 161.738 227.341 162.377C225.177 168.912 222.331 175.141 218.883 180.966C218.533 181.556 218.588 182.305 219.03 182.829L228.827 194.468C230.772 192.615 233.313 191.654 235.881 191.654C238.045 191.654 240.231 192.337 242.083 193.757C246.569 197.189 247.421 203.609 243.99 208.1L241.149 211.81C237.816 216.171 231.603 217.34 227.079 214.22C223.183 211.537 221.773 206.712 223.183 202.521L209.069 196.32C208.43 196.041 207.692 196.205 207.228 196.719C200.693 203.893 193.087 210.067 184.662 214.996C184.083 215.335 183.771 215.99 183.88 216.651L187.492 238.682L190.618 237.431C195.103 235.639 200.207 237.934 201.808 242.551C203.305 246.873 200.955 251.599 196.71 253.293L180.739 259.686C176.258 261.478 171.155 259.183 169.554 254.566C168.057 250.244 170.406 245.518 174.652 243.818L175.083 243.649L162.199 225.596C161.811 225.05 161.128 224.809 160.478 224.978C152.779 226.973 144.704 228.044 136.376 228.044C129.787 228.044 123.361 227.372 117.149 226.104C116.493 225.973 115.821 226.252 115.46 226.814L102.571 247.037L103.024 247.201C107.221 248.73 109.821 252.692 109.821 256.91C109.821 258.09 109.619 259.287 109.193 260.456C109.193 266.505 104.543 269.761 98.8606 267.685L83.0205 261.91C77.7204 259.981 74.9557 254.162 76.7861 248.845C78.6657 243.365 84.9111 240.6 90.3532 242.583L90.7193 242.715L93.342 219.017C93.4185 218.351 93.0688 217.717 92.4732 217.405C82.4413 212.225 73.4421 205.324 65.8636 197.09C65.4046 196.593 64.6888 196.429 64.0659 196.686L44.7343 204.614C46.9199 208.701 45.6905 213.881 41.7018 216.504C37.5382 219.241 31.9158 217.968 29.0745 213.881L24.1241 206.751C21.3539 202.767 21.9986 197.216 25.8125 194.211C29.8777 191.009 35.675 191.839 38.7184 195.866L52.3347 180.48C52.7882 179.966 52.8647 179.223 52.5314 178.627C46.9417 168.552 43.117 157.362 41.4723 145.477C41.3794 144.811 40.8931 144.27 40.2429 144.122L18.4853 139.095L18.4634 141.647C18.4415 144.199 17.3925 146.51 15.7041 148.177C14.0212 149.849 11.7044 150.876 9.14729 150.876C4.06577 150.876 -0.0486176 146.729 0.000558345 141.647L0.142622 125.84C0.186334 120.671 4.45918 116.316 9.62265 116.453C14.6331 116.584 18.6328 120.704 18.6055 125.73L40.2046 120.665C40.8603 120.512 41.3466 119.971 41.434 119.305C43.1279 106.738 47.2641 94.9408 53.3456 84.4062C53.6843 83.8161 53.6242 83.0785 53.1816 82.5539L42.882 70.4566L41.9859 71.6369C39.2102 75.3087 33.9101 75.948 30.3312 72.9701C26.9763 70.1725 26.5665 65.1566 29.2002 61.676L36.0629 52.6058C37.6584 50.5021 40.079 49.3929 42.5323 49.3929C44.2316 49.3929 45.9473 49.9284 47.4117 51.0321C50.8048 53.5947 51.6025 58.3047 49.3623 61.8345L63.7654 68.0634C64.3992 68.3366 65.1314 68.1727 65.6013 67.6645C72.3985 60.2116 80.3596 53.8406 89.2003 48.8301C89.7795 48.4968 90.1018 47.8466 90.0035 47.1855L86.6869 25.1055L83.5396 26.3185C79.0373 28.0506 73.9612 25.6847 72.4258 21.0512C70.9833 16.7073 73.3984 12.0137 77.6658 10.3745L93.719 4.20022C98.2268 2.46813 103.297 4.82858 104.833 9.46751C106.275 13.8059 103.866 18.4995 99.5928 20.1442L99.1612 20.3081L111.794 38.525C112.176 39.0769 112.854 39.3283 113.504 39.1698C120.837 37.3721 128.492 36.4214 136.376 36.4214H136.387C137.076 36.4214 137.693 36.0007 137.923 35.3505L142.108 23.6466C137.262 22.1276 134.032 17.3466 134.65 12.1339C135.355 6.22736 141.01 2.03101 146.916 2.77412L152.665 3.49536C158.522 4.233 162.915 9.47844 162.276 15.3522C161.773 19.9256 158.484 23.4881 154.309 24.5809L155.763 37.2683C155.839 37.9513 156.347 38.5087 157.025 38.6562C166.74 40.7926 175.903 44.4043 184.263 49.2399C184.848 49.5732 185.569 49.5241 186.088 49.0979L203.425 35.0281L200.791 32.9354C197.005 29.9302 196.469 24.3624 199.682 20.6851C202.687 17.2373 207.96 16.9313 211.539 19.7781L225.008 30.4711C228.794 33.4708 229.33 39.0441 226.117 42.7214C223.112 46.1637 217.839 46.4697 214.26 43.6284L213.894 43.3388L204.611 63.4955C204.327 64.102 204.458 64.8178 204.928 65.2986C211.463 71.992 217.025 79.6416 221.385 88.0125C221.702 88.619 222.363 88.9632 223.041 88.8703L236.204 87.0289C234.269 81.6305 237.138 75.6474 242.657 73.8389C247.918 72.1122 253.59 75.0355 255.524 80.2263L258.557 88.3567C260.469 93.4983 258.174 99.383 253.147 101.569C248.328 103.661 242.892 101.771 240.302 97.498L229.379 104.907C228.805 105.295 228.549 106.005 228.734 106.672C230.98 114.813 232.182 123.381 232.182 132.233C232.182 133.713 232.149 135.183 232.078 136.642C232.051 137.314 232.428 137.932 233.04 138.199L253.519 147.144L254.164 143.838C255.071 139.232 259.535 136.232 264.136 137.134V137.134Z" fill="#F79595"/>
<path d="M177.979 96.3718C185.45 96.3718 191.506 91.3082 191.506 85.0619C191.506 78.8156 185.45 73.752 177.979 73.752C170.509 73.752 164.453 78.8156 164.453 85.0619C164.453 91.3082 170.509 96.3718 177.979 96.3718Z" fill="#EE6161"/>
<path d="M129.166 170.278C137.331 170.278 143.951 163.659 143.951 155.493C143.951 147.328 137.331 140.708 129.166 140.708C121 140.708 114.381 147.328 114.381 155.493C114.381 163.659 121 170.278 129.166 170.278Z" fill="#EE6161"/>
<path d="M186.787 158.377C192.634 158.377 197.373 153.637 197.373 147.791C197.373 141.944 192.634 137.205 186.787 137.205C180.941 137.205 176.201 141.944 176.201 147.791C176.201 153.637 180.941 158.377 186.787 158.377Z" fill="#F9B1B1"/>
<path d="M147.691 209.744C153.375 209.744 157.983 205.136 157.983 199.452C157.983 193.768 153.375 189.16 147.691 189.16C142.007 189.16 137.399 193.768 137.399 199.452C137.399 205.136 142.007 209.744 147.691 209.744Z" fill="#F9B1B1"/>
<path d="M78.1106 127.644C78.1106 90.8121 95.6811 58.0768 122.886 37.3633C119.71 37.8114 116.574 38.4168 113.504 39.1697C112.854 39.3282 112.176 39.0769 111.794 38.525L99.1612 20.308L99.5928 20.1441C103.866 18.4994 106.275 13.8059 104.833 9.46746C103.297 4.82853 98.2268 2.46808 93.719 4.20017L77.6658 10.3745C73.3984 12.0137 70.9833 16.7073 72.4258 21.0511C73.9612 25.6846 79.0373 28.0505 83.5396 26.3184L86.6869 25.1054L90.0035 47.1854C90.1019 47.8466 89.7795 48.4968 89.2003 48.8301C80.3596 53.8406 72.3985 60.2116 65.6013 67.6645C65.1314 68.1726 64.3992 68.3366 63.7654 68.0634L49.3623 61.8344C51.6025 58.3047 50.8048 53.5947 47.4117 51.0321C45.9473 49.9284 44.2316 49.3929 42.5323 49.3929C40.079 49.3929 37.6584 50.5021 36.0629 52.6057L29.2002 61.6759C26.5665 65.1565 26.9763 70.1725 30.3312 72.97C33.9101 75.9479 39.2102 75.3086 41.9859 71.6368L42.882 70.4566L53.1816 82.5539C53.6242 83.0784 53.6843 83.8161 53.3456 84.4062C47.2641 94.9407 43.1279 106.738 41.434 119.305C41.3466 119.971 40.8603 120.512 40.2046 120.665L18.6055 125.73C18.6328 120.703 14.6331 116.584 9.62266 116.452C4.45918 116.316 0.186334 120.671 0.142622 125.84L0.000558345 141.647C-0.0486176 146.728 4.06577 150.876 9.14729 150.876C11.7044 150.876 14.0212 149.848 15.7041 148.176C17.3925 146.51 18.4415 144.199 18.4634 141.647L18.4853 139.095L40.2429 144.122C40.8931 144.27 41.3794 144.811 41.4723 145.477C43.117 157.361 46.9418 168.552 52.5314 178.627C52.8647 179.223 52.7882 179.966 52.3347 180.48L38.7184 195.866C35.675 191.839 29.8777 191.009 25.8125 194.211C21.9986 197.216 21.3539 202.767 24.1241 206.75L29.0745 213.881C31.9158 217.968 37.5382 219.241 41.7018 216.504C45.6905 213.881 46.9199 208.701 44.7343 204.614L64.0659 196.686C64.6888 196.429 65.4046 196.593 65.8636 197.09C73.4421 205.324 82.4413 212.225 92.4732 217.405C93.0688 217.717 93.4185 218.351 93.342 219.017L90.7193 242.715L90.3532 242.583C84.9111 240.6 78.6657 243.365 76.7861 248.845C74.9557 254.162 77.7204 259.981 83.0205 261.91L98.8606 267.685C104.543 269.761 109.193 266.505 109.193 260.456C109.619 259.287 109.821 258.09 109.821 256.91C109.821 252.692 107.221 248.73 103.024 247.2L102.571 247.037L115.46 226.814C115.821 226.252 116.493 225.973 117.149 226.104C123.361 227.372 129.787 228.044 136.376 228.044C137.152 228.044 137.94 228.034 138.711 228.016C102.688 209.02 78.1106 171.198 78.1106 127.644V127.644Z" fill="#F37C7C"/>
<path d="M83.292 185.554C89.2133 185.554 94.0135 180.754 94.0135 174.833C94.0135 168.911 89.2133 164.111 83.292 164.111C77.3707 164.111 72.5706 168.911 72.5706 174.833C72.5706 180.754 77.3707 185.554 83.292 185.554Z" fill="#EE6161"/>
<path d="M162.641 127.644H159.019C156.755 127.644 154.921 125.809 154.921 123.546C154.921 121.283 156.755 119.448 159.019 119.448H162.641C164.905 119.448 166.739 121.283 166.739 123.546C166.739 125.809 164.905 127.644 162.641 127.644Z" fill="#F9B1B1"/>
<path d="M114.38 199.277H110.658C108.394 199.277 106.56 197.442 106.56 195.179C106.56 192.916 108.394 191.081 110.658 191.081H114.38C116.644 191.081 118.478 192.916 118.478 195.179C118.478 197.442 116.644 199.277 114.38 199.277Z" fill="#F9B1B1"/>
<path d="M76.1555 139.598H72.57C70.3063 139.598 68.472 137.763 68.472 135.5C68.472 133.237 70.3063 131.402 72.57 131.402H76.1555C78.4192 131.402 80.2535 133.237 80.2535 135.5C80.2535 137.763 78.4192 139.598 76.1555 139.598Z" fill="#EE6161"/>
<path d="M148.94 67.9011H143.95C141.686 67.9011 139.852 66.0663 139.852 63.8031C139.852 61.5399 141.686 59.7051 143.95 59.7051H148.94C151.204 59.7051 153.038 61.5399 153.038 63.8031C153.038 66.0663 151.204 67.9011 148.94 67.9011Z" fill="#F9B1B1"/>
<path d="M181.711 185.937H176.201C173.938 185.937 172.103 184.102 172.103 181.839C172.103 179.575 173.938 177.741 176.201 177.741H181.711C183.975 177.741 185.809 179.575 185.809 181.839C185.809 184.102 183.974 185.937 181.711 185.937Z" fill="#EE6161"/>
<path d="M119.206 114.85C131.443 105.201 134.83 89.0948 126.772 78.8757C118.713 68.6566 102.262 68.1942 90.0254 77.8429C77.7892 87.4915 74.4022 103.598 82.4603 113.817C90.5184 124.036 106.97 124.498 119.206 114.85Z" fill="#EE6161"/>
<g clip-path="url(#clip0)">
<path d="M536.135 363.445C540.742 364.352 543.741 368.816 542.84 373.417L539.479 390.53C538.551 395.267 533.852 398.305 529.109 397.141C524.667 396.054 521.973 391.514 522.852 387.028L522.945 386.569L500.794 387.579C500.128 387.607 499.549 388.049 499.341 388.689C497.177 395.224 494.33 401.452 490.883 407.277C490.533 407.867 490.588 408.616 491.03 409.14L500.827 420.779C502.772 418.926 505.313 417.965 507.881 417.965C510.045 417.965 512.23 418.648 514.083 420.068C518.569 423.5 519.421 429.92 515.99 434.411L513.148 438.121C509.815 442.482 503.603 443.651 499.079 440.531C495.183 437.848 493.773 433.023 495.183 428.833L481.069 422.631C480.43 422.352 479.692 422.516 479.228 423.03C472.693 430.204 465.087 436.378 456.662 441.307C456.082 441.646 455.771 442.301 455.88 442.962L459.492 464.993L462.617 463.742C467.103 461.95 472.207 464.245 473.808 468.862C475.305 473.184 472.955 477.91 468.71 479.604L452.738 485.997C448.258 487.789 443.155 485.494 441.554 480.877C440.057 476.555 442.406 471.829 446.652 470.129L447.083 469.96L434.199 451.907C433.811 451.361 433.128 451.12 432.478 451.29C424.779 453.284 416.703 454.355 408.376 454.355C401.787 454.355 395.361 453.683 389.149 452.415C388.493 452.284 387.821 452.563 387.46 453.126L374.571 473.348L375.024 473.512C379.22 475.042 381.821 479.003 381.821 483.221C381.821 484.401 381.619 485.598 381.193 486.767C381.193 492.816 376.543 496.073 370.861 493.996L355.02 488.221C349.72 486.292 346.956 480.473 348.786 475.156C350.666 469.676 356.911 466.911 362.353 468.895L362.719 469.026L365.342 445.328C365.418 444.662 365.069 444.028 364.473 443.717C354.441 438.537 345.442 431.636 337.863 423.401C337.404 422.904 336.689 422.74 336.066 422.997L316.734 430.925C318.92 435.012 317.69 440.192 313.702 442.815C309.538 445.552 303.916 444.279 301.074 440.192L296.124 433.062C293.354 429.078 293.998 423.527 297.812 420.522C301.878 417.32 307.675 418.15 310.718 422.177L324.335 406.791C324.788 406.277 324.865 405.534 324.531 404.939C318.942 394.863 315.117 383.673 313.472 371.788C313.379 371.122 312.893 370.581 312.243 370.433L290.485 365.407L290.463 367.958C290.441 370.51 289.392 372.821 287.704 374.488C286.021 376.16 283.704 377.187 281.147 377.187C276.066 377.187 271.951 373.04 272 367.958L272.143 352.151C272.186 346.982 276.459 342.627 281.623 342.764C286.633 342.895 290.633 347.015 290.605 352.042L312.205 346.976C312.86 346.823 313.346 346.283 313.434 345.616C315.128 333.049 319.264 321.252 325.345 310.717C325.684 310.127 325.624 309.39 325.182 308.865L314.882 296.768L313.986 297.948C311.21 301.62 305.91 302.259 302.331 299.281C298.976 296.484 298.566 291.468 301.2 287.987L308.063 278.917C309.658 276.813 312.079 275.704 314.532 275.704C316.231 275.704 317.947 276.24 319.412 277.343C322.805 279.906 323.602 284.616 321.362 288.146L335.765 294.375C336.399 294.648 337.131 294.484 337.601 293.976C344.398 286.523 352.359 280.152 361.2 275.141C361.779 274.808 362.102 274.158 362.003 273.497L358.687 251.417L355.539 252.63C351.037 254.362 345.961 251.996 344.426 247.362C342.983 243.018 345.398 238.325 349.666 236.686L365.719 230.511C370.227 228.779 375.297 231.14 376.833 235.779C378.275 240.117 375.866 244.811 371.593 246.455L371.161 246.619L383.794 264.836C384.176 265.388 384.854 265.639 385.504 265.481C392.837 263.683 400.492 262.733 408.376 262.733H408.387C409.076 262.733 409.693 262.312 409.923 261.662L414.108 249.958C409.261 248.439 406.032 243.658 406.65 238.445C407.355 232.539 413.01 228.342 418.916 229.085L424.664 229.807C430.522 230.544 434.915 235.79 434.276 241.663C433.773 246.237 430.484 249.799 426.309 250.892L427.763 263.579C427.839 264.262 428.347 264.82 429.025 264.967C438.74 267.104 447.903 270.715 456.263 275.551C456.847 275.884 457.569 275.835 458.088 275.409L475.425 261.339L472.791 259.247C469.005 256.241 468.469 250.674 471.682 246.996C474.687 243.548 479.96 243.242 483.539 246.089L497.008 256.782C500.794 259.782 501.33 265.355 498.117 269.033C495.112 272.475 489.839 272.781 486.26 269.94L485.894 269.65L476.611 289.807C476.327 290.413 476.458 291.129 476.928 291.61C483.463 298.303 489.025 305.953 493.385 314.324C493.702 314.93 494.363 315.274 495.041 315.181L508.204 313.34C506.269 307.942 509.138 301.959 514.656 300.15C519.918 298.423 525.59 301.347 527.524 306.537L530.557 314.668C532.469 319.809 530.174 325.694 525.147 327.88C520.328 329.973 514.891 328.082 512.301 323.809L501.379 331.218C500.805 331.606 500.548 332.317 500.734 332.983C502.98 341.125 504.182 349.692 504.182 358.544C504.182 360.024 504.149 361.494 504.078 362.953C504.051 363.625 504.428 364.243 505.04 364.51L525.519 373.455L526.164 370.149C527.071 365.543 531.535 362.543 536.135 363.445Z" fill="#F79595"/>
<path d="M449.979 322.683C457.45 322.683 463.506 317.619 463.506 311.373C463.506 305.127 457.45 300.063 449.979 300.063C442.509 300.063 436.453 305.127 436.453 311.373C436.453 317.619 442.509 322.683 449.979 322.683Z" fill="#EE6161"/>
<path d="M401.166 396.589C409.331 396.589 415.951 389.97 415.951 381.804C415.951 373.639 409.331 367.019 401.166 367.019C393 367.019 386.38 373.639 386.38 381.804C386.38 389.97 393 396.589 401.166 396.589Z" fill="#EE6161"/>
<path d="M458.787 384.688C464.634 384.688 469.373 379.948 469.373 374.102C469.373 368.255 464.634 363.516 458.787 363.516C452.941 363.516 448.201 368.255 448.201 374.102C448.201 379.948 452.941 384.688 458.787 384.688Z" fill="#F9B1B1"/>
<path d="M419.691 436.055C425.375 436.055 429.983 431.447 429.983 425.763C429.983 420.079 425.375 415.471 419.691 415.471C414.007 415.471 409.399 420.079 409.399 425.763C409.399 431.447 414.007 436.055 419.691 436.055Z" fill="#F9B1B1"/>
<path d="M350.11 353.955C350.11 317.123 367.681 284.388 394.886 263.674C391.709 264.123 388.574 264.728 385.504 265.481C384.854 265.639 384.176 265.388 383.794 264.836L371.161 246.619L371.593 246.455C375.866 244.811 378.275 240.117 376.833 235.779C375.297 231.14 370.227 228.779 365.719 230.511L349.666 236.686C345.398 238.325 342.983 243.018 344.426 247.362C345.961 251.996 351.037 254.362 355.539 252.63L358.687 251.417L362.003 273.497C362.102 274.158 361.779 274.808 361.2 275.141C352.359 280.152 344.398 286.523 337.601 293.976C337.131 294.484 336.399 294.648 335.765 294.375L321.362 288.146C323.602 284.616 322.805 279.906 319.412 277.343C317.947 276.24 316.231 275.704 314.532 275.704C312.079 275.704 309.658 276.813 308.063 278.917L301.2 287.987C298.566 291.468 298.976 296.484 302.331 299.281C305.91 302.259 311.21 301.62 313.986 297.948L314.882 296.768L325.182 308.865C325.624 309.39 325.684 310.127 325.345 310.717C319.264 321.252 315.128 333.049 313.434 345.616C313.347 346.282 312.86 346.823 312.205 346.976L290.605 352.042C290.633 347.015 286.633 342.895 281.623 342.764C276.459 342.627 272.186 346.982 272.143 352.151L272 367.958C271.951 373.04 276.066 377.187 281.147 377.187C283.704 377.187 286.021 376.16 287.704 374.488C289.392 372.821 290.441 370.51 290.463 367.958L290.485 365.406L312.243 370.433C312.893 370.581 313.379 371.122 313.472 371.788C315.117 383.673 318.942 394.863 324.531 404.938C324.865 405.534 324.788 406.277 324.335 406.791L310.718 422.177C307.675 418.15 301.878 417.32 297.812 420.522C293.998 423.527 293.354 429.078 296.124 433.062L301.074 440.192C303.916 444.279 309.538 445.552 313.702 442.815C317.69 440.192 318.92 435.012 316.734 430.925L336.066 422.997C336.689 422.74 337.404 422.904 337.863 423.401C345.442 431.636 354.441 438.537 364.473 443.716C365.069 444.028 365.418 444.662 365.342 445.328L362.719 469.026L362.353 468.895C356.911 466.911 350.666 469.676 348.786 475.156C346.956 480.473 349.72 486.292 355.02 488.221L370.861 493.996C376.543 496.072 381.193 492.816 381.193 486.767C381.619 485.598 381.821 484.401 381.821 483.221C381.821 479.003 379.22 475.042 375.024 473.512L374.571 473.348L387.46 453.125C387.821 452.563 388.493 452.284 389.149 452.415C395.361 453.683 401.787 454.355 408.376 454.355C409.152 454.355 409.94 454.345 410.711 454.327C374.688 435.331 350.11 397.51 350.11 353.955Z" fill="#F37C7C"/>
<path d="M355.292 411.865C361.213 411.865 366.013 407.065 366.013 401.144C366.013 395.223 361.213 390.422 355.292 390.422C349.371 390.422 344.57 395.223 344.57 401.144C344.57 407.065 349.371 411.865 355.292 411.865Z" fill="#EE6161"/>
<path d="M434.641 353.955H431.019C428.755 353.955 426.921 352.12 426.921 349.857C426.921 347.594 428.755 345.759 431.019 345.759H434.641C436.905 345.759 438.739 347.594 438.739 349.857C438.739 352.12 436.905 353.955 434.641 353.955Z" fill="#F9B1B1"/>
<path d="M386.38 425.588H382.658C380.394 425.588 378.56 423.753 378.56 421.49C378.56 419.227 380.394 417.392 382.658 417.392H386.38C388.644 417.392 390.478 419.227 390.478 421.49C390.478 423.753 388.644 425.588 386.38 425.588Z" fill="#F9B1B1"/>
<path d="M348.155 365.909H344.57C342.306 365.909 340.472 364.074 340.472 361.811C340.472 359.548 342.306 357.713 344.57 357.713H348.155C350.419 357.713 352.253 359.548 352.253 361.811C352.253 364.074 350.419 365.909 348.155 365.909Z" fill="#EE6161"/>
<path d="M420.94 294.212H415.95C413.686 294.212 411.852 292.377 411.852 290.114C411.852 287.851 413.686 286.016 415.95 286.016H420.94C423.203 286.016 425.038 287.851 425.038 290.114C425.038 292.377 423.203 294.212 420.94 294.212Z" fill="#F9B1B1"/>
<path d="M453.711 412.248H448.201C445.938 412.248 444.103 410.413 444.103 408.15C444.103 405.887 445.938 404.052 448.201 404.052H453.711C455.975 404.052 457.809 405.887 457.809 408.15C457.809 410.413 455.974 412.248 453.711 412.248Z" fill="#EE6161"/>
<path d="M391.206 341.161C403.443 331.512 406.83 315.406 398.771 305.187C390.713 294.968 374.261 294.505 362.025 304.154C349.789 313.803 346.402 329.909 354.46 340.128C362.518 350.347 378.97 350.809 391.206 341.161Z" fill="#EE6161"/>
</g>
<defs>
<clipPath id="clip0">
<rect width="271" height="271" fill="white" transform="translate(271 224)"/>
</clipPath>
</defs>
</svg>
