<svg width="578" height="175" viewBox="0 0 578 175" fill="none" xmlns="http://www.w3.org/2000/svg">
<path d="M124.768 116.432C121.504 116.432 118.64 115.728 116.176 114.32C113.744 112.912 111.872 110.896 110.56 108.272C109.248 105.648 108.592 102.576 108.592 99.056C108.592 95.536 109.248 92.48 110.56 89.888C111.872 87.264 113.744 85.248 116.176 83.84C118.64 82.432 121.504 81.728 124.768 81.728C126.88 81.728 128.864 82.048 130.72 82.688C132.576 83.296 134.224 84.192 135.664 85.376C136.08 85.696 136.368 86.032 136.528 86.384C136.688 86.736 136.768 87.168 136.768 87.68C136.768 88.384 136.576 88.976 136.192 89.456C135.808 89.936 135.344 90.176 134.8 90.176C134.16 90.176 133.504 89.952 132.832 89.504C131.456 88.48 130.176 87.776 128.992 87.392C127.808 86.976 126.496 86.768 125.056 86.768C121.728 86.768 119.2 87.808 117.472 89.888C115.776 91.968 114.928 95.024 114.928 99.056C114.928 103.12 115.776 106.192 117.472 108.272C119.2 110.352 121.728 111.392 125.056 111.392C126.432 111.392 127.696 111.184 128.848 110.768C130.032 110.352 131.36 109.648 132.832 108.656C133.152 108.464 133.472 108.304 133.792 108.176C134.112 108.048 134.448 107.984 134.8 107.984C135.344 107.984 135.808 108.224 136.192 108.704C136.576 109.184 136.768 109.776 136.768 110.48C136.768 110.96 136.688 111.392 136.528 111.776C136.368 112.128 136.08 112.464 135.664 112.784C134.224 113.968 132.576 114.88 130.72 115.52C128.864 116.128 126.88 116.432 124.768 116.432ZM151.887 116.384C149.487 116.384 147.375 115.888 145.551 114.896C143.759 113.904 142.367 112.48 141.375 110.624C140.383 108.768 139.887 106.608 139.887 104.144C139.887 101.68 140.383 99.536 141.375 97.712C142.367 95.856 143.759 94.432 145.551 93.44C147.375 92.448 149.487 91.952 151.887 91.952C154.287 91.952 156.383 92.448 158.175 93.44C159.999 94.432 161.391 95.856 162.351 97.712C163.343 99.536 163.839 101.68 163.839 104.144C163.839 106.608 163.343 108.768 162.351 110.624C161.391 112.48 159.999 113.904 158.175 114.896C156.383 115.888 154.287 116.384 151.887 116.384ZM151.839 111.728C153.791 111.728 155.279 111.088 156.303 109.808C157.327 108.528 157.839 106.64 157.839 104.144C157.839 101.68 157.327 99.808 156.303 98.528C155.279 97.216 153.807 96.56 151.887 96.56C149.967 96.56 148.479 97.216 147.423 98.528C146.399 99.808 145.887 101.68 145.887 104.144C145.887 106.64 146.399 108.528 147.423 109.808C148.447 111.088 149.919 111.728 151.839 111.728ZM184.785 93.776C185.041 93.2 185.377 92.768 185.793 92.48C186.241 92.192 186.721 92.048 187.233 92.048C187.969 92.048 188.625 92.304 189.201 92.816C189.809 93.296 190.113 93.904 190.113 94.64C190.113 95.024 190.017 95.408 189.825 95.792L180.945 114.368C180.657 114.976 180.241 115.44 179.697 115.76C179.185 116.08 178.609 116.24 177.969 116.24C177.361 116.24 176.769 116.08 176.193 115.76C175.649 115.44 175.233 114.976 174.945 114.368L166.017 95.792C165.857 95.472 165.777 95.104 165.777 94.688C165.777 93.952 166.081 93.328 166.689 92.816C167.329 92.304 168.049 92.048 168.849 92.048C170.001 92.048 170.849 92.608 171.393 93.728L178.113 108.56L184.785 93.776ZM197.455 116.288C196.591 116.288 195.871 116.048 195.295 115.568C194.751 115.056 194.479 114.336 194.479 113.408V94.88C194.479 93.952 194.751 93.248 195.295 92.768C195.871 92.288 196.591 92.048 197.455 92.048C198.319 92.048 199.039 92.288 199.615 92.768C200.191 93.248 200.479 93.952 200.479 94.88V113.408C200.479 114.336 200.191 115.056 199.615 115.568C199.039 116.048 198.319 116.288 197.455 116.288ZM197.455 87.776C196.367 87.776 195.503 87.488 194.863 86.912C194.223 86.304 193.903 85.52 193.903 84.56C193.903 83.6 194.223 82.832 194.863 82.256C195.503 81.68 196.367 81.392 197.455 81.392C198.511 81.392 199.359 81.68 199.999 82.256C200.671 82.832 201.007 83.6 201.007 84.56C201.007 85.52 200.687 86.304 200.047 86.912C199.407 87.488 198.543 87.776 197.455 87.776ZM226.251 81.92C227.147 81.92 227.883 82.176 228.459 82.688C229.035 83.2 229.323 83.872 229.323 84.704V113.408C229.323 114.272 229.051 114.96 228.507 115.472C227.963 115.984 227.243 116.24 226.347 116.24C225.451 116.24 224.731 115.984 224.187 115.472C223.643 114.96 223.371 114.272 223.371 113.408V112.208C222.667 113.52 221.643 114.544 220.299 115.28C218.987 116.016 217.483 116.384 215.787 116.384C213.771 116.384 211.963 115.872 210.363 114.848C208.795 113.824 207.563 112.384 206.667 110.528C205.803 108.64 205.371 106.48 205.371 104.048C205.371 101.616 205.803 99.488 206.667 97.664C207.563 95.84 208.795 94.432 210.363 93.44C211.931 92.448 213.739 91.952 215.787 91.952C217.483 91.952 218.987 92.304 220.299 93.008C221.611 93.712 222.619 94.704 223.323 95.984V84.608C223.323 83.808 223.579 83.168 224.091 82.688C224.635 82.176 225.355 81.92 226.251 81.92ZM217.371 111.728C219.291 111.728 220.763 111.072 221.787 109.76C222.843 108.448 223.371 106.576 223.371 104.144C223.371 101.712 222.843 99.856 221.787 98.576C220.763 97.264 219.307 96.608 217.419 96.608C215.499 96.608 214.011 97.248 212.955 98.528C211.899 99.808 211.371 101.648 211.371 104.048C211.371 106.48 211.899 108.368 212.955 109.712C214.011 111.056 215.483 111.728 217.371 111.728ZM291.486 83.792C291.71 83.152 292.062 82.672 292.542 82.352C293.054 82.032 293.614 81.872 294.222 81.872C294.99 81.872 295.646 82.112 296.19 82.592C296.766 83.072 297.054 83.712 297.054 84.512C297.054 84.8 296.974 85.216 296.814 85.76L286.494 114.32C286.238 114.96 285.806 115.456 285.198 115.808C284.622 116.16 283.982 116.336 283.278 116.336C282.574 116.336 281.918 116.16 281.31 115.808C280.702 115.456 280.286 114.96 280.062 114.32L272.094 91.712L263.982 114.32C263.726 114.96 263.294 115.456 262.686 115.808C262.11 116.16 261.47 116.336 260.766 116.336C260.062 116.336 259.406 116.16 258.798 115.808C258.222 115.456 257.822 114.96 257.598 114.32L247.278 85.76C247.118 85.28 247.038 84.864 247.038 84.512C247.038 83.712 247.326 83.072 247.902 82.592C248.51 82.112 249.214 81.872 250.014 81.872C250.654 81.872 251.23 82.032 251.742 82.352C252.254 82.672 252.622 83.152 252.846 83.792L261.006 107.264L269.406 83.936C269.63 83.296 269.998 82.8 270.51 82.448C271.022 82.064 271.582 81.872 272.19 81.872C272.798 81.872 273.358 82.064 273.87 82.448C274.414 82.8 274.798 83.312 275.022 83.984L283.182 107.552L291.486 83.792ZM317.634 109.568C318.178 109.568 318.61 109.776 318.93 110.192C319.282 110.608 319.458 111.168 319.458 111.872C319.458 112.864 318.866 113.696 317.682 114.368C316.594 114.976 315.362 115.472 313.986 115.856C312.61 116.208 311.298 116.384 310.049 116.384C306.274 116.384 303.282 115.296 301.074 113.12C298.866 110.944 297.762 107.968 297.762 104.192C297.762 101.792 298.242 99.664 299.202 97.808C300.162 95.952 301.506 94.512 303.234 93.488C304.994 92.464 306.978 91.952 309.186 91.952C311.298 91.952 313.138 92.416 314.706 93.344C316.274 94.272 317.49 95.584 318.354 97.28C319.218 98.976 319.65 100.976 319.65 103.28C319.65 104.656 319.042 105.344 317.826 105.344H303.666C303.858 107.552 304.482 109.184 305.538 110.24C306.594 111.264 308.13 111.776 310.146 111.776C311.17 111.776 312.066 111.648 312.834 111.392C313.634 111.136 314.53 110.784 315.522 110.336C316.482 109.824 317.186 109.568 317.634 109.568ZM309.33 96.176C307.698 96.176 306.386 96.688 305.394 97.712C304.434 98.736 303.858 100.208 303.666 102.128H314.514C314.45 100.176 313.97 98.704 313.074 97.712C312.178 96.688 310.93 96.176 309.33 96.176ZM338.046 91.952C340.094 91.952 341.902 92.448 343.47 93.44C345.038 94.432 346.254 95.84 347.118 97.664C348.014 99.488 348.462 101.616 348.462 104.048C348.462 106.48 348.014 108.64 347.118 110.528C346.254 112.384 345.022 113.824 343.422 114.848C341.854 115.872 340.062 116.384 338.046 116.384C336.35 116.384 334.83 116.016 333.486 115.28C332.174 114.544 331.166 113.52 330.462 112.208V113.408C330.462 114.272 330.19 114.96 329.646 115.472C329.102 115.984 328.382 116.24 327.486 116.24C326.59 116.24 325.87 115.984 325.326 115.472C324.814 114.96 324.558 114.272 324.558 113.408V84.704C324.558 83.872 324.83 83.2 325.374 82.688C325.95 82.176 326.686 81.92 327.582 81.92C328.478 81.92 329.198 82.16 329.742 82.64C330.286 83.12 330.558 83.776 330.558 84.608V95.936C331.262 94.656 332.27 93.68 333.582 93.008C334.894 92.304 336.382 91.952 338.046 91.952ZM336.462 111.728C338.35 111.728 339.822 111.056 340.878 109.712C341.934 108.368 342.462 106.48 342.462 104.048C342.462 101.648 341.934 99.808 340.878 98.528C339.854 97.248 338.382 96.608 336.462 96.608C334.542 96.608 333.054 97.264 331.998 98.576C330.974 99.856 330.462 101.712 330.462 104.144C330.462 106.576 330.974 108.448 331.998 109.76C333.054 111.072 334.542 111.728 336.462 111.728ZM396.993 81.92C397.889 81.92 398.609 82.208 399.153 82.784C399.697 83.328 399.969 84.064 399.969 84.992V113.408C399.969 114.304 399.713 115.008 399.201 115.52C398.689 116.032 398.017 116.288 397.185 116.288C396.353 116.288 395.697 116.032 395.217 115.52C394.737 115.008 394.497 114.304 394.497 113.408V93.632L386.337 109.088C385.953 109.792 385.537 110.32 385.089 110.672C384.641 110.992 384.113 111.152 383.505 111.152C382.897 111.152 382.369 110.992 381.921 110.672C381.473 110.352 381.057 109.824 380.673 109.088L372.465 93.872V113.408C372.465 114.272 372.209 114.976 371.697 115.52C371.217 116.032 370.561 116.288 369.729 116.288C368.897 116.288 368.241 116.032 367.761 115.52C367.281 115.008 367.041 114.304 367.041 113.408V84.992C367.041 84.064 367.297 83.328 367.809 82.784C368.353 82.208 369.073 81.92 369.969 81.92C371.217 81.92 372.193 82.608 372.897 83.984L383.553 104.288L394.161 83.984C394.865 82.608 395.809 81.92 396.993 81.92ZM416.952 91.952C420.216 91.952 422.632 92.768 424.2 94.4C425.8 96 426.6 98.448 426.6 101.744V113.456C426.6 114.32 426.344 115.008 425.832 115.52C425.32 116 424.616 116.24 423.72 116.24C422.888 116.24 422.2 115.984 421.656 115.472C421.144 114.96 420.888 114.288 420.888 113.456V112.4C420.344 113.648 419.48 114.624 418.296 115.328C417.144 116.032 415.8 116.384 414.264 116.384C412.696 116.384 411.272 116.064 409.992 115.424C408.712 114.784 407.704 113.904 406.968 112.784C406.232 111.664 405.864 110.416 405.864 109.04C405.864 107.312 406.296 105.952 407.16 104.96C408.056 103.968 409.496 103.248 411.48 102.8C413.464 102.352 416.2 102.128 419.688 102.128H420.888V101.024C420.888 99.456 420.552 98.32 419.88 97.616C419.208 96.88 418.12 96.512 416.616 96.512C415.688 96.512 414.744 96.656 413.784 96.944C412.824 97.2 411.688 97.584 410.376 98.096C409.544 98.512 408.936 98.72 408.552 98.72C407.976 98.72 407.496 98.512 407.112 98.096C406.76 97.68 406.584 97.136 406.584 96.464C406.584 95.92 406.712 95.456 406.968 95.072C407.256 94.656 407.72 94.272 408.36 93.92C409.48 93.312 410.808 92.832 412.344 92.48C413.912 92.128 415.448 91.952 416.952 91.952ZM415.464 112.064C417.064 112.064 418.36 111.536 419.352 110.48C420.376 109.392 420.888 108 420.888 106.304V105.296H420.024C417.88 105.296 416.216 105.392 415.032 105.584C413.848 105.776 413 106.112 412.488 106.592C411.976 107.072 411.72 107.728 411.72 108.56C411.72 109.584 412.072 110.432 412.776 111.104C413.512 111.744 414.408 112.064 415.464 112.064ZM446.186 91.952C448.202 91.952 449.994 92.464 451.562 93.488C453.162 94.512 454.394 95.968 455.258 97.856C456.154 99.712 456.602 101.856 456.602 104.288C456.602 106.72 456.154 108.848 455.258 110.672C454.394 112.496 453.178 113.904 451.61 114.896C450.042 115.888 448.234 116.384 446.186 116.384C444.522 116.384 443.034 116.032 441.722 115.328C440.41 114.624 439.402 113.648 438.698 112.4V122.192C438.698 123.024 438.426 123.68 437.882 124.16C437.338 124.64 436.618 124.88 435.722 124.88C434.826 124.88 434.09 124.624 433.514 124.112C432.97 123.6 432.698 122.928 432.698 122.096V94.88C432.698 94.016 432.954 93.328 433.466 92.816C434.01 92.304 434.73 92.048 435.626 92.048C436.522 92.048 437.242 92.304 437.786 92.816C438.33 93.328 438.602 94.016 438.602 94.88V96.08C439.306 94.768 440.314 93.76 441.626 93.056C442.97 92.32 444.49 91.952 446.186 91.952ZM444.602 111.728C446.49 111.728 447.962 111.088 449.018 109.808C450.074 108.496 450.602 106.656 450.602 104.288C450.602 101.856 450.074 99.968 449.018 98.624C447.962 97.28 446.49 96.608 444.602 96.608C442.682 96.608 441.194 97.264 440.138 98.576C439.114 99.888 438.602 101.76 438.602 104.192C438.602 106.592 439.114 108.448 440.138 109.76C441.194 111.072 442.682 111.728 444.602 111.728Z" fill="white"/>
<path d="M64.1553 75.7083C63.6397 75.7083 63.1452 75.9227 62.7806 76.3045C62.416 76.6862 62.2112 77.2039 62.2112 77.7437H58.1889C57.8421 74.8491 56.7546 72.1063 55.0414 69.8056L57.8953 66.8217C58.2639 67.183 58.7522 67.38 59.2571 67.3711C59.7619 67.3621 60.2436 67.1479 60.6003 66.7737C60.9569 66.3995 61.1606 65.8947 61.168 65.3661C61.1755 64.8375 60.9863 64.3266 60.6404 63.9415L57.8914 61.0635C57.5248 60.6927 57.0337 60.4875 56.524 60.4922C56.0142 60.4968 55.5266 60.7109 55.1662 61.0883C54.8057 61.4656 54.6013 61.9762 54.5968 62.5098C54.5924 63.0435 54.7884 63.5577 55.1425 63.9415L52.2964 66.9336C50.099 65.1394 47.4793 64.0001 44.7144 63.6362V59.425C45.23 59.425 45.7245 59.2105 46.0891 58.8288C46.4537 58.4471 46.6585 57.9294 46.6585 57.3895C46.6585 56.8497 46.4537 56.332 46.0891 55.9503C45.7245 55.5686 45.23 55.3541 44.7144 55.3541H40.8263C40.3107 55.3541 39.8162 55.5686 39.4516 55.9503C39.087 56.332 38.8822 56.8497 38.8822 57.3895C38.8822 57.9294 39.087 58.4471 39.4516 58.8288C39.8162 59.2105 40.3107 59.425 40.8263 59.425V63.6383C38.0615 64.0013 35.4419 65.1399 33.2443 66.9336L30.3963 63.9477C30.5819 63.7599 30.73 63.5353 30.8319 63.287C30.9338 63.0386 30.9874 62.7716 30.9897 62.5013C30.9919 62.231 30.9427 61.963 30.845 61.7129C30.7472 61.4627 30.6029 61.2355 30.4204 61.0443C30.2378 60.8532 30.0208 60.7021 29.7818 60.5998C29.5429 60.4974 29.2869 60.4459 29.0288 60.4483C28.7707 60.4506 28.5155 60.5068 28.2784 60.6134C28.0412 60.7201 27.8267 60.8752 27.6473 61.0696L24.8984 63.9477C24.7084 64.1342 24.5561 64.3589 24.4506 64.6082C24.3451 64.8576 24.2886 65.1266 24.2844 65.3993C24.2801 65.672 24.3283 65.9429 24.426 66.1957C24.5237 66.4485 24.6689 66.6782 24.853 66.8711C25.0372 67.0641 25.2565 67.2163 25.4979 67.3187C25.7393 67.4212 25.9979 67.4718 26.2584 67.4676C26.5189 67.4633 26.7759 67.4043 27.0141 67.2941C27.2524 67.1838 27.4671 67.0245 27.6454 66.8257L30.4973 69.8056C28.7848 72.1065 27.6979 74.8492 27.3518 77.7437H23.3295C23.3295 77.2039 23.1247 76.6862 22.7601 76.3045C22.3955 75.9227 21.901 75.7083 21.3854 75.7083C20.8698 75.7083 20.3753 75.9227 20.0108 76.3045C19.6462 76.6862 19.4413 77.2039 19.4413 77.7437V81.8145C19.4413 82.3544 19.6462 82.8721 20.0108 83.2538C20.3753 83.6355 20.8698 83.85 21.3854 83.85C21.901 83.85 22.3955 83.6355 22.7601 83.2538C23.1247 82.8721 23.3295 82.3544 23.3295 81.8145H27.3538C27.7004 84.7096 28.7886 87.4525 30.5032 89.7527L27.6493 92.7366C27.4699 92.5422 27.2554 92.3871 27.0182 92.2804C26.781 92.1738 26.5259 92.1176 26.2678 92.1153C26.0097 92.1129 25.7537 92.1644 25.5148 92.2668C25.2758 92.3691 25.0588 92.5202 24.8762 92.7114C24.6937 92.9025 24.5493 93.1297 24.4516 93.3799C24.3538 93.63 24.3047 93.898 24.3069 94.1683C24.3091 94.4386 24.3628 94.7057 24.4647 94.954C24.5665 95.2023 24.7147 95.4269 24.9003 95.6147L27.6493 98.4927C27.8286 98.6871 28.0431 98.8422 28.2803 98.9489C28.5175 99.0556 28.7726 99.1117 29.0307 99.1141C29.2889 99.1164 29.5449 99.0649 29.7838 98.9626C30.0227 98.8602 30.2398 98.7091 30.4223 98.518C30.6048 98.3269 30.7492 98.0996 30.8469 97.8495C30.9447 97.5993 30.9939 97.3313 30.9916 97.061C30.9894 96.7908 30.9358 96.5237 30.8339 96.2754C30.732 96.027 30.5839 95.8024 30.3982 95.6147L33.2443 92.6267C35.442 94.4197 38.0617 95.5576 40.8263 95.92V100.133C40.3107 100.133 39.8162 100.348 39.4516 100.729C39.087 101.111 38.8822 101.629 38.8822 102.169C38.8822 102.709 39.087 103.226 39.4516 103.608C39.8162 103.99 40.3107 104.204 40.8263 104.204H44.7144C45.23 104.204 45.7245 103.99 46.0891 103.608C46.4537 103.226 46.6585 102.709 46.6585 102.169C46.6585 101.629 46.4537 101.111 46.0891 100.729C45.7245 100.348 45.23 100.133 44.7144 100.133V95.922C47.4792 95.5589 50.0988 94.4204 52.2964 92.6267L55.1464 95.6126C54.7925 95.9968 54.5969 96.5111 54.6017 97.0448C54.6065 97.5784 54.8113 98.0888 55.172 98.4659C55.5327 98.843 56.0204 99.0567 56.5302 99.061C57.0399 99.0653 57.5309 98.8597 57.8973 98.4887L60.6462 95.6106C60.8319 95.4228 60.98 95.1982 61.0819 94.9499C61.1838 94.7016 61.2374 94.4345 61.2396 94.1642C61.2419 93.894 61.1927 93.6259 61.0949 93.3758C60.9972 93.1257 60.8528 92.8984 60.6703 92.7073C60.4878 92.5162 60.2707 92.365 60.0318 92.2627C59.7929 92.1604 59.5369 92.1089 59.2787 92.1112C59.0206 92.1136 58.7655 92.1697 58.5283 92.2764C58.2911 92.383 58.0766 92.5381 57.8973 92.7325L55.0395 89.7527C56.7534 87.4524 57.841 84.7094 58.1869 81.8145H62.2112C62.2112 82.3544 62.416 82.8721 62.7806 83.2538C63.1452 83.6355 63.6397 83.85 64.1553 83.85C64.6709 83.85 65.1654 83.6355 65.5299 83.2538C65.8945 82.8721 66.0994 82.3544 66.0994 81.8145V77.7437C66.0994 77.2039 65.8945 76.6862 65.5299 76.3045C65.1654 75.9227 64.6709 75.7083 64.1553 75.7083ZM42.7703 91.9916C40.4633 91.9916 38.2081 91.2754 36.2899 89.9334C34.3717 88.5915 32.8766 86.6842 31.9938 84.4526C31.1109 82.2211 30.8799 79.7656 31.33 77.3966C31.7801 75.0276 32.891 72.8515 34.5223 71.1436C36.1536 69.4356 38.232 68.2725 40.4947 67.8013C42.7574 67.3301 45.1028 67.5719 47.2342 68.4962C49.3656 69.4206 51.1873 70.9859 52.469 72.9942C53.7507 75.0026 54.4349 77.3637 54.4349 79.7791C54.4318 83.0171 53.2018 86.1215 51.015 88.4111C48.8281 90.7007 45.863 91.9884 42.7703 91.9916Z" fill="white"/>
<path d="M42.7704 35C31.3623 35.0856 20.4525 39.9054 12.4344 48.4021C4.41624 56.8988 -0.0553777 68.3785 0.000517784 80.3226C0.000517784 96.2803 6.99922 113.992 20.8022 132.958C26.9963 141.489 33.9214 149.41 41.4912 156.622C41.8454 156.946 42.2999 157.125 42.7704 157.125C43.2408 157.125 43.6953 156.946 44.0496 156.622C51.6193 149.41 58.5444 141.489 64.7385 132.958C78.5415 113.992 85.5402 96.2803 85.5402 80.3226C85.5961 68.3785 81.1245 56.8988 73.1064 48.4021C65.0882 39.9054 54.1784 35.0856 42.7704 35ZM42.7704 152.334C35.9136 145.639 3.88869 112.643 3.88869 80.3226C3.88869 69.5261 7.98514 59.1718 15.2769 51.5375C22.5686 43.9032 32.4583 39.6143 42.7704 39.6143C53.0824 39.6143 62.9721 43.9032 70.2639 51.5375C77.5556 59.1718 81.652 69.5261 81.652 80.3226C81.652 112.645 49.6271 145.639 42.7704 152.334Z" fill="white"/>
<path d="M42.7704 43.1417C35.8493 43.1417 29.0837 45.2905 23.329 49.3163C17.5744 53.342 13.0892 59.064 10.4406 65.7587C7.79202 72.4533 7.09903 79.8199 8.44926 86.9268C9.79949 94.0338 13.1323 100.562 18.0262 105.686C22.9202 110.81 29.1554 114.299 35.9435 115.713C42.7316 117.126 49.7676 116.401 56.1618 113.628C62.556 110.855 68.0213 106.159 71.8664 100.134C75.7116 94.1089 77.7639 87.0254 77.7639 79.7792C77.7531 70.0658 74.0628 60.7535 67.5026 53.8851C60.9424 47.0167 52.0479 43.153 42.7704 43.1417ZM42.7704 112.346C36.6183 112.346 30.6044 110.436 25.4892 106.857C20.3739 103.279 16.3871 98.1927 14.0328 92.2419C11.6785 86.2912 11.0625 79.7431 12.2627 73.4258C13.4629 67.1085 16.4254 61.3056 20.7756 56.7511C25.1257 52.1966 30.6682 49.0949 36.702 47.8383C42.7359 46.5817 48.9901 47.2267 54.6739 49.6915C60.3576 52.1564 65.2156 56.3306 68.6335 61.6862C72.0514 67.0417 73.8757 73.3381 73.8757 79.7792C73.8659 88.4133 70.5856 96.6908 64.7544 102.796C58.9231 108.901 51.017 112.336 42.7704 112.346Z" fill="white"/>
</svg>
