<svg width="81" height="112" viewBox="0 0 81 112" fill="none" xmlns="http://www.w3.org/2000/svg">
<path d="M40.2752 9.58911C34.2063 9.58911 28.2736 11.3888 23.2274 14.7605C18.1813 18.1323 14.2483 22.9246 11.9258 28.5316C9.60326 34.1386 8.99559 40.3084 10.1796 46.2608C11.3636 52.2131 14.2861 57.6807 18.5775 61.9721C22.8689 66.2635 28.3365 69.186 34.2888 70.37C40.2412 71.554 46.411 70.9464 52.018 68.6239C57.625 66.3014 62.4174 62.3684 65.7891 57.3222C69.1608 52.276 70.9605 46.3433 70.9605 40.2744C70.9509 32.1391 67.7149 24.3398 61.9623 18.5873C56.2098 12.8348 48.4105 9.59875 40.2752 9.58911ZM61.3714 44.11C60.8627 44.11 60.3749 43.908 60.0152 43.5483C59.6556 43.1886 59.4535 42.7008 59.4535 42.1922H55.4836C55.1424 44.9198 54.0695 47.5043 52.3787 49.6717L55.1921 52.4852C55.369 52.302 55.5807 52.1559 55.8146 52.0554C56.0486 51.9549 56.3003 51.902 56.5549 51.8998C56.8096 51.8976 57.0621 51.9461 57.2978 52.0425C57.5335 52.1389 57.7476 52.2813 57.9277 52.4614C58.1078 52.6415 58.2502 52.8556 58.3466 53.0913C58.443 53.327 58.4916 53.5795 58.4893 53.8342C58.4871 54.0888 58.4342 54.3405 58.3337 54.5745C58.2332 54.8085 58.0871 55.0201 57.9039 55.197L55.1921 57.9088C54.8307 58.2584 54.3463 58.4521 53.8435 58.4481C53.3406 58.4441 52.8595 58.2427 52.5036 57.8874C52.1478 57.532 51.9458 57.0512 51.941 56.5483C51.9363 56.0455 52.1293 55.5609 52.4784 55.1989L49.6726 52.3797C47.5048 54.0698 44.9205 55.1426 42.1931 55.4847V59.4527C42.7017 59.4527 43.1895 59.6547 43.5492 60.0144C43.9088 60.374 44.1109 60.8619 44.1109 61.3705C44.1109 61.8791 43.9088 62.3669 43.5492 62.7266C43.1895 63.0863 42.7017 63.2883 42.1931 63.2883H38.3574C37.8488 63.2883 37.361 63.0863 37.0013 62.7266C36.6416 62.3669 36.4396 61.8791 36.4396 61.3705C36.4396 60.8619 36.6416 60.374 37.0013 60.0144C37.361 59.6547 37.8488 59.4527 38.3574 59.4527V55.4828C35.6302 55.1413 33.0459 54.0692 30.8779 52.3797L28.0644 55.1912C28.2476 55.3682 28.3937 55.5798 28.4942 55.8138C28.5947 56.0477 28.6476 56.2994 28.6498 56.5541C28.6521 56.8087 28.6035 57.0612 28.5071 57.2969C28.4107 57.5326 28.2683 57.7468 28.0882 57.9268C27.9081 58.1069 27.694 58.2493 27.4583 58.3457C27.2226 58.4422 26.9701 58.4907 26.7154 58.4885C26.4608 58.4863 26.2091 58.4333 25.9751 58.3328C25.7411 58.2323 25.5295 58.0862 25.3526 57.9031L22.6408 55.1912C22.4576 55.0143 22.3115 54.8027 22.211 54.5687C22.1105 54.3347 22.0576 54.0831 22.0554 53.8284C22.0532 53.5738 22.1017 53.3213 22.1981 53.0856C22.2946 52.8499 22.437 52.6357 22.617 52.4557C22.7971 52.2756 23.0112 52.1332 23.2469 52.0368C23.4826 51.9403 23.7352 51.8918 23.9898 51.894C24.2445 51.8962 24.4961 51.9491 24.7301 52.0496C24.9641 52.1502 25.1757 52.2963 25.3526 52.4794L28.1737 49.6717C26.4823 47.5045 25.4088 44.92 25.0669 42.1922H21.097C21.097 42.7008 20.8949 43.1886 20.5352 43.5483C20.1756 43.908 19.6878 44.11 19.1791 44.11C18.6705 44.11 18.1827 43.908 17.823 43.5483C17.4633 43.1886 17.2613 42.7008 17.2613 42.1922V38.3565C17.2613 37.8479 17.4633 37.3601 17.823 37.0004C18.1827 36.6408 18.6705 36.4387 19.1791 36.4387C19.6878 36.4387 20.1756 36.6408 20.5352 37.0004C20.8949 37.3601 21.097 37.8479 21.097 38.3565H25.0649C25.4064 35.6293 26.4785 33.045 28.168 30.877L25.3565 28.0616C25.1805 28.249 24.9688 28.399 24.7337 28.5029C24.4987 28.6068 24.2451 28.6624 23.9882 28.6664C23.7312 28.6704 23.4761 28.6227 23.238 28.5261C22.9998 28.4296 22.7835 28.2862 22.6018 28.1044C22.4202 27.9226 22.2769 27.7062 22.1805 27.468C22.0842 27.2298 22.0367 26.9746 22.0408 26.7176C22.045 26.4607 22.1008 26.2072 22.2048 25.9722C22.3089 25.7373 22.4591 25.5256 22.6466 25.3498L25.3584 22.638C25.5353 22.4548 25.7469 22.3087 25.9809 22.2082C26.2149 22.1077 26.4665 22.0548 26.7212 22.0526C26.9758 22.0504 27.2284 22.0989 27.4641 22.1953C27.6997 22.2918 27.9139 22.4342 28.094 22.6142C28.274 22.7943 28.4164 23.0084 28.5129 23.2441C28.6093 23.4798 28.6578 23.7324 28.6556 23.987C28.6534 24.2417 28.6005 24.4933 28.5 24.7273C28.3995 24.9613 28.2533 25.1729 28.0702 25.3498L30.8779 28.171C33.0457 26.4809 35.63 25.4081 38.3574 25.066V21.0961C37.8488 21.0961 37.361 20.894 37.0013 20.5344C36.6416 20.1747 36.4396 19.6869 36.4396 19.1783C36.4396 18.6696 36.6416 18.1818 37.0013 17.8221C37.361 17.4625 37.8488 17.2604 38.3574 17.2604H42.1931C42.7017 17.2604 43.1895 17.4625 43.5492 17.8221C43.9088 18.1818 44.1109 18.6696 44.1109 19.1783C44.1109 19.6869 43.9088 20.1747 43.5492 20.5344C43.1895 20.894 42.7017 21.0961 42.1931 21.0961V25.0641C44.9206 25.4069 47.5049 26.4804 49.6726 28.171L52.4861 25.3613C52.1367 24.9996 51.9434 24.5152 51.9478 24.0123C51.9521 23.5095 52.1538 23.0285 52.5094 22.6729C52.865 22.3173 53.346 22.1156 53.8489 22.1112C54.3517 22.1069 54.8362 22.3002 55.1979 22.6495L57.9097 25.3613C58.0973 25.537 58.2476 25.7485 58.3518 25.9834C58.456 26.2183 58.512 26.4718 58.5163 26.7287C58.5207 26.9857 58.4734 27.2409 58.3772 27.4792C58.281 27.7174 58.1378 27.934 57.9563 28.1159C57.7748 28.2978 57.5586 28.4413 57.3205 28.5381C57.0824 28.6348 56.8273 28.6826 56.5704 28.6788C56.3134 28.675 56.0599 28.6196 55.8247 28.5159C55.5896 28.4122 55.3778 28.2623 55.2017 28.0751L52.3806 30.877C54.0706 33.0449 55.1434 35.6291 55.4855 38.3565H59.4535C59.4535 37.8479 59.6556 37.3601 60.0152 37.0004C60.3749 36.6408 60.8627 36.4387 61.3714 36.4387C61.88 36.4387 62.3678 36.6408 62.7275 37.0004C63.0871 37.3601 63.2892 37.8479 63.2892 38.3565V42.1922C63.2892 42.7008 63.0871 43.1886 62.7275 43.5483C62.3678 43.908 61.88 44.11 61.3714 44.11Z" fill="#BB1616"/>
<path d="M40.2752 51.7813C46.6303 51.7813 51.7822 46.6294 51.7822 40.2743C51.7822 33.9192 46.6303 28.7673 40.2752 28.7673C33.9201 28.7673 28.7682 33.9192 28.7682 40.2743C28.7682 46.6294 33.9201 51.7813 40.2752 51.7813Z" fill="#BB1616"/>
<path d="M40.2752 0C29.5259 0.0679432 19.2438 4.40324 11.6909 12.0522C4.138 19.7011 -0.0670547 30.0371 0.000808833 40.7865C0.000808833 76.0093 40.2752 111.234 40.2752 111.234C40.2752 111.234 80.5496 76.0093 80.5496 40.7865C80.6175 30.0371 76.4124 19.7011 68.8595 12.0522C61.3066 4.40324 51.0245 0.0679432 40.2752 0ZM40.2752 74.7953C33.4476 74.7953 26.7734 72.7707 21.0964 68.9775C15.4195 65.1843 10.9949 59.7929 8.38204 53.485C5.76924 47.1771 5.08561 40.2361 6.41761 33.5397C7.7496 26.8433 11.0374 20.6923 15.8652 15.8644C20.6931 11.0366 26.8441 7.74879 33.5405 6.4168C40.2369 5.0848 47.1779 5.76843 53.4858 8.38123C59.7937 10.994 65.1851 15.4187 68.9783 21.0956C72.7715 26.7725 74.7961 33.4468 74.7961 40.2744C74.7855 49.4267 71.145 58.201 64.6734 64.6726C58.2018 71.1442 49.4275 74.7847 40.2752 74.7953Z" fill="#BB1616"/>
</svg>
